<?xml version="1.0" encoding="UTF-8"?>
<svg id="Layer_1" data-name="Layer 1" xmlns="http://www.w3.org/2000/svg" viewBox="0 0 338.42 52.73">
  <defs><style>.cls-1{fill:#ffffff}</style></defs>
  <g>
    <polygon class="cls-1" points="229.88 27.04 231.51 27.04 231.51 13.4 236.82 13.4 236.82 11.93 224.55 11.93 224.55 13.4 229.88 13.4 229.88 27.04"></polygon>
    <polygon class="cls-1" points="21.27 26.37 14.07 28.74 15.67 21.43 11.66 21.04 11.69 28.49 5.26 24.83 3.66 28.44 10.71 30.69 5.13 35.68 8.07 38.3 12.48 32.24 15.54 39.13 19.03 37.13 14.55 31.04 22.09 30.21 21.27 26.37"></polygon>
    <polygon class="cls-1" points="232.93 43.29 226.83 33.28 225.67 33.28 225.67 48.39 227.29 48.39 227.29 36.81 232.36 45.14 233.5 45.14 238.58 36.81 238.58 48.39 240.2 48.39 240.2 33.28 239.04 33.28 232.93 43.29"></polygon>
    <path class="cls-1" d="M245.06,18.79c.54.56.81,1.29.81,2.18v6.06h1.56v-6.32c0-.83-.17-1.57-.52-2.2-.34-.63-.82-1.12-1.44-1.48-.61-.36-1.32-.54-2.11-.54s-1.5.18-2.13.53c-.55.31-.99.74-1.34,1.25v-6.79h-1.56v15.54h1.56v-6.08c0-.59.13-1.11.4-1.56.26-.45.62-.81,1.08-1.07.45-.26.97-.38,1.56-.38.88,0,1.59.28,2.13.85Z"></path>
    <path class="cls-1" d="M268.45,25c.69.72,1.49,1.27,2.42,1.67.92.4,1.92.59,3.01.59,1.16,0,2.21-.2,3.15-.61.94-.41,1.75-.98,2.43-1.71l-1.12-1.12c-.51.59-1.15,1.05-1.9,1.38-.75.34-1.61.51-2.58.51-.85,0-1.63-.15-2.35-.46-.72-.31-1.34-.74-1.87-1.31-.53-.56-.94-1.23-1.23-1.99-.29-.76-.44-1.59-.44-2.48s.14-1.7.43-2.46c.29-.76.7-1.42,1.23-1.98.53-.56,1.16-.99,1.87-1.3.71-.31,1.49-.46,2.34-.46.92,0,1.76.16,2.5.49.75.33,1.38.79,1.89,1.37l1.12-1.12c-.69-.72-1.49-1.28-2.4-1.69s-1.95-.61-3.11-.61c-1.08,0-2.08.2-3,.59-.92.4-1.72.94-2.4,1.65-.69.7-1.22,1.53-1.59,2.47-.37.94-.56,1.96-.56,3.04s.19,2.1.57,3.04c.38.94.92,1.78,1.6,2.49Z"></path>
    <path class="cls-1" d="M294.66,21.02c0-1.01.25-1.77.75-2.28.5-.51,1.14-.77,1.93-.77.38,0,.72.06,1.02.18.3.12.57.31.8.57l1.03-1.08c-.37-.4-.76-.68-1.19-.87-.42-.18-.89-.27-1.4-.27-1.11,0-1.99.38-2.62,1.14-.12.15-.22.31-.32.48v-1.4h-1.56v10.32h1.56v-6.02Z"></path>
    <path class="cls-1" d="M251.94,26.56c.82.47,1.74.7,2.77.7.82,0,1.59-.15,2.31-.46.72-.31,1.32-.75,1.8-1.34l-1.01-1.01c-.37.45-.81.79-1.34,1.02-.53.23-1.1.34-1.71.34-.78,0-1.46-.17-2.05-.51-.59-.34-1.05-.8-1.38-1.4-.24-.43-.39-.92-.45-1.45h8.46c.04-.2.07-.38.09-.54.01-.15.02-.29.02-.41,0-.98-.21-1.85-.63-2.6-.42-.75-.99-1.34-1.71-1.77-.72-.42-1.56-.64-2.51-.64s-1.9.23-2.7.7c-.8.47-1.44,1.11-1.9,1.92-.46.81-.69,1.72-.69,2.73s.24,1.95.71,2.77c.48.82,1.12,1.46,1.94,1.93ZM251.29,19.78c.31-.58.75-1.03,1.31-1.36.56-.33,1.21-.49,1.95-.49.7,0,1.31.15,1.81.46.51.31.89.74,1.16,1.28.21.42.31.92.34,1.46h-7c.07-.5.2-.95.42-1.35Z"></path>
    <path class="cls-1" d="M314.23,26.56c.82.47,1.74.7,2.77.7.82,0,1.59-.15,2.31-.46.72-.31,1.32-.75,1.8-1.34l-1.01-1.01c-.37.45-.81.79-1.34,1.02-.53.23-1.1.34-1.71.34-.78,0-1.46-.17-2.05-.51-.59-.34-1.05-.8-1.38-1.4-.24-.43-.39-.92-.45-1.45h8.46c.04-.2.07-.38.09-.54.01-.15.02-.29.02-.41,0-.98-.21-1.85-.63-2.6-.42-.75-.99-1.34-1.71-1.77-.72-.42-1.56-.64-2.51-.64s-1.9.23-2.7.7c-.8.47-1.44,1.11-1.9,1.92-.46.81-.69,1.72-.69,2.73s.24,1.95.71,2.77c.48.82,1.12,1.46,1.94,1.93ZM313.58,19.78c.32-.58.75-1.03,1.31-1.36.56-.33,1.21-.49,1.95-.49.7,0,1.31.15,1.81.46.5.31.89.74,1.16,1.28.21.42.31.92.34,1.46h-7c.07-.5.2-.95.42-1.35Z"></path>
    <path class="cls-1" d="M324.79,21.02c0-1.01.25-1.77.75-2.28.5-.51,1.14-.77,1.93-.77.38,0,.72.06,1.02.18.3.12.57.31.8.57l1.03-1.08c-.37-.4-.76-.68-1.19-.87-.42-.18-.89-.27-1.4-.27-1.11,0-1.99.38-2.62,1.14-.12.15-.22.31-.32.48v-1.4h-1.56v10.32h1.56v-6.02Z"></path>
    <path class="cls-1" d="M325.49,46.8c-.5.21-1.04.32-1.62.32-.72,0-1.36-.17-1.93-.5-.57-.34-1.02-.8-1.34-1.39-.32-.59-.48-1.26-.48-2.01s.16-1.41.48-1.99c.32-.58.77-1.04,1.34-1.37.57-.34,1.21-.5,1.93-.5.59,0,1.12.11,1.61.32.49.21.91.52,1.26.91l1.03-1.05c-.47-.53-1.04-.94-1.71-1.23-.67-.29-1.4-.44-2.2-.44-1.01,0-1.92.23-2.73.7-.81.47-1.45,1.11-1.92,1.92-.47.81-.7,1.72-.7,2.73s.23,1.92.7,2.74c.47.82,1.11,1.47,1.92,1.94.81.48,1.72.71,2.73.71.79,0,1.53-.15,2.21-.44.68-.29,1.26-.71,1.75-1.25l-1.03-1.03c-.37.4-.8.7-1.3.91Z"></path>
    <path class="cls-1" d="M309.87,25.46l-1.01-1.01c-.37.45-.81.79-1.34,1.02-.53.23-1.1.34-1.71.34-.78,0-1.46-.17-2.05-.51-.59-.34-1.05-.8-1.38-1.4-.24-.43-.39-.92-.45-1.45h8.46c.04-.2.07-.38.09-.54.01-.15.02-.29.02-.41,0-.98-.21-1.85-.63-2.6-.42-.75-.99-1.34-1.71-1.77-.72-.42-1.56-.64-2.51-.64s-1.9.23-2.7.7c-.8.47-1.44,1.11-1.9,1.92-.46.81-.69,1.72-.69,2.73s.24,1.95.71,2.77c.48.82,1.12,1.46,1.94,1.93.82.47,1.74.7,2.77.7.82,0,1.59-.15,2.31-.46.72-.31,1.32-.75,1.8-1.34ZM302.34,19.78c.32-.58.75-1.03,1.31-1.36s1.21-.49,1.95-.49c.7,0,1.31.15,1.81.46.5.31.89.74,1.16,1.28.21.42.31.92.34,1.46h-7c.07-.5.2-.95.42-1.35Z"></path>
    <rect class="cls-1" x="303.44" y="32.84" width="1.56" height="15.54"></rect>
    <path class="cls-1" d="M315.67,39.78s-.05-.1-.09-.14c-.4-.56-.9-1-1.53-1.32-.62-.31-1.33-.47-2.12-.47-.97,0-1.83.24-2.6.71-.77.48-1.38,1.12-1.83,1.93-.45.81-.68,1.73-.68,2.76s.23,1.92.68,2.72c.45.81,1.07,1.45,1.84,1.92.78.48,1.65.71,2.61.71.79,0,1.49-.16,2.11-.47.61-.32,1.12-.76,1.5-1.33.04-.06.06-.13.1-.19v1.78h1.56v-10.32h-1.56v1.71ZM314.79,46.06c-.64.72-1.51,1.08-2.59,1.08-.72,0-1.36-.17-1.93-.5-.57-.34-1.02-.8-1.35-1.38-.33-.59-.49-1.26-.49-2.02s.16-1.43.49-2.02c.33-.58.78-1.05,1.34-1.38.56-.34,1.2-.51,1.92-.51s1.35.16,1.89.49c.54.33.96.79,1.25,1.37.29.59.44,1.27.44,2.04,0,1.17-.32,2.12-.97,2.83Z"></path>
    <path class="cls-1" d="M337.79,40.25c-.42-.75-.99-1.34-1.71-1.77-.72-.42-1.56-.64-2.51-.64s-1.9.23-2.7.7c-.8.47-1.44,1.11-1.9,1.92-.46.81-.69,1.72-.69,2.73s.24,1.95.71,2.77c.48.82,1.12,1.46,1.94,1.93.82.47,1.74.7,2.77.7.82,0,1.59-.15,2.31-.46.72-.31,1.32-.75,1.8-1.34l-1.01-1.01c-.37.45-.81.79-1.34,1.02-.53.23-1.1.34-1.71.34-.78,0-1.46-.17-2.05-.51-.59-.34-1.05-.8-1.38-1.4-.24-.43-.39-.92-.45-1.45h8.46c.04-.2.07-.38.09-.54.01-.15.02-.29.02-.41,0-.98-.21-1.85-.63-2.6ZM329.86,42.48c.07-.5.2-.95.42-1.35.32-.58.75-1.03,1.31-1.36.56-.33,1.21-.49,1.95-.49.7,0,1.31.15,1.81.46.5.31.89.74,1.16,1.28.21.42.31.92.34,1.46h-7Z"></path>
    <path class="cls-1" d="M299.13,38.56c-.76-.48-1.62-.71-2.57-.71-.76,0-1.46.15-2.1.46-.64.31-1.16.74-1.57,1.31-.05.07-.09.14-.13.21v-1.76h-1.56v14.67h1.56v-6.13c.04.06.08.13.12.2.4.56.92,1.01,1.55,1.33.63.32,1.34.48,2.13.48.95,0,1.81-.24,2.58-.71.77-.48,1.37-1.11,1.81-1.92.44-.8.66-1.71.66-2.72s-.22-1.94-.67-2.76c-.45-.81-1.05-1.46-1.81-1.93ZM299.53,45.26c-.32.59-.76,1.05-1.32,1.38-.56.33-1.2.49-1.93.49s-1.33-.16-1.87-.49c-.54-.33-.97-.79-1.27-1.38-.31-.59-.46-1.27-.46-2.03s.15-1.44.46-2.03c.31-.59.74-1.05,1.28-1.38.55-.33,1.18-.49,1.9-.49s1.35.16,1.9.49.98.79,1.31,1.38c.32.59.48,1.27.48,2.03s-.16,1.44-.48,2.03Z"></path>
    <path class="cls-1" d="M258.9,37.85c-1.11,0-1.99.38-2.62,1.14-.12.15-.22.31-.32.48v-1.4h-1.56v10.32h1.56v-6.02c0-1.01.25-1.77.75-2.28.5-.51,1.14-.77,1.93-.77.38,0,.72.06,1.02.18.3.12.57.31.8.57l1.03-1.08c-.37-.4-.76-.68-1.19-.87-.42-.18-.89-.27-1.41-.27Z"></path>
    <path class="cls-1" d="M289.31,18.43s-.05-.1-.09-.14c-.4-.56-.9-1-1.53-1.32-.62-.31-1.33-.47-2.12-.47-.97,0-1.83.24-2.6.71-.77.48-1.38,1.12-1.83,1.93-.45.81-.68,1.73-.68,2.76s.23,1.92.68,2.72c.45.81,1.07,1.45,1.84,1.92.78.48,1.65.71,2.61.71.79,0,1.49-.16,2.11-.47.61-.32,1.12-.76,1.5-1.33.04-.06.06-.13.1-.2v1.78h1.56v-10.32h-1.56v1.71ZM288.43,24.71c-.64.72-1.51,1.08-2.59,1.08-.72,0-1.36-.17-1.93-.5-.57-.34-1.02-.8-1.35-1.38-.33-.59-.49-1.26-.49-2.02s.16-1.43.49-2.02c.33-.58.78-1.05,1.34-1.38.56-.34,1.2-.51,1.92-.51s1.35.16,1.89.49c.54.33.96.79,1.25,1.37.29.59.44,1.27.44,2.04,0,1.17-.32,2.12-.97,2.83Z"></path>
    <path class="cls-1" d="M250.56,39.78s-.06-.1-.09-.15c-.4-.56-.9-1-1.53-1.32-.62-.31-1.33-.47-2.12-.47-.97,0-1.83.24-2.6.71-.77.48-1.38,1.12-1.83,1.93-.45.81-.68,1.73-.68,2.76s.23,1.92.68,2.72c.45.81,1.07,1.45,1.84,1.92.78.48,1.65.71,2.61.71.79,0,1.49-.16,2.11-.47.62-.32,1.12-.76,1.5-1.33.04-.06.06-.13.1-.19v1.77h1.56v-10.32h-1.56v1.71ZM249.69,46.06c-.64.72-1.51,1.08-2.59,1.08-.72,0-1.36-.17-1.93-.5-.57-.34-1.02-.8-1.35-1.38-.33-.59-.49-1.26-.49-2.02s.16-1.43.49-2.02c.33-.58.78-1.05,1.34-1.38.56-.34,1.2-.51,1.92-.51s1.35.16,1.89.49c.54.33.96.79,1.25,1.37s.44,1.27.44,2.04c0,1.17-.32,2.12-.97,2.83Z"></path>
    <polygon class="cls-1" points="271.62 38.07 269.71 38.07 264.68 42.95 264.68 32.84 263.12 32.84 263.12 48.39 264.68 48.39 264.68 43.25 269.8 48.39 271.84 48.39 266.47 43.04 271.62 38.07"></polygon>
    <polygon class="cls-1" points="286.83 33.72 285.27 33.72 285.27 38.07 282.68 38.07 282.68 39.47 285.27 39.47 285.27 48.39 286.83 48.39 286.83 39.47 289.42 39.47 289.42 38.07 286.83 38.07 286.83 33.72"></polygon>
    <path class="cls-1" d="M279.81,38.48c-.72-.42-1.56-.64-2.51-.64s-1.9.23-2.7.7c-.8.47-1.44,1.11-1.9,1.92-.46.81-.69,1.72-.69,2.73s.24,1.95.71,2.77c.48.82,1.12,1.46,1.94,1.93.82.47,1.74.7,2.77.7.82,0,1.59-.15,2.31-.46.72-.31,1.32-.75,1.8-1.34l-1.01-1.01c-.37.45-.81.79-1.34,1.02-.53.23-1.1.34-1.71.34-.78,0-1.46-.17-2.05-.51-.59-.34-1.05-.8-1.38-1.4-.24-.43-.39-.92-.45-1.45h8.46c.04-.2.07-.38.09-.54.01-.15.02-.29.02-.41,0-.98-.21-1.85-.63-2.6-.42-.75-.99-1.34-1.71-1.77ZM273.59,42.48c.07-.5.2-.95.42-1.35.32-.58.75-1.03,1.31-1.36.56-.33,1.21-.49,1.95-.49.7,0,1.31.15,1.81.46.5.31.89.74,1.16,1.28.21.42.31.92.34,1.46h-7Z"></path>
  </g>
  <path class="cls-1" d="M113.47,14.16c-2.45-1.43-5.25-2.14-8.4-2.14-3.35,0-6.39.8-9.11,2.4-2.73,1.6-4.86,3.76-6.41,6.49-1.55,2.73-2.33,5.81-2.33,9.26s.8,6.55,2.4,9.3c1.6,2.75,3.77,4.93,6.52,6.52,2.75,1.6,5.88,2.4,9.38,2.4,2.8,0,5.4-.54,7.8-1.61,1.82-.82,3.42-1.87,4.81-3.16.73-.67.72-1.83,0-2.52-.69-.67-1.77-.63-2.47.04-1.06,1.02-2.28,1.83-3.67,2.42-1.93.82-4.01,1.24-6.26,1.24-2.95,0-5.53-.61-7.73-1.84-2.2-1.22-3.91-2.95-5.14-5.17-1.02-1.85-1.61-3.97-1.78-6.35l.63-.09c8.67-1.17,17.44-1.21,26.12-.14l3.11.38c.1-.65.17-1.21.23-1.69.05-.47.07-.86.07-1.16,0-3.3-.69-6.2-2.06-8.7-1.38-2.5-3.29-4.46-5.74-5.89ZM91.14,28.14c.2-2.11.75-4.01,1.67-5.69,1.17-2.15,2.81-3.84,4.91-5.06,2.1-1.22,4.52-1.84,7.27-1.84s4.92.58,6.83,1.73c1.9,1.15,3.35,2.76,4.35,4.84.85,1.76,1.28,3.78,1.33,6.03-8.75-1.14-17.61-1.14-26.36,0ZM150.27,44.59c1.19,1.08.42,3.06-1.19,3.06-.41,0-.81-.16-1.11-.43l-18.43-17.01v15.53c0,1.06-.86,1.91-1.91,1.91s-1.91-.86-1.91-1.91V1.91C125.72.86,126.58,0,127.63,0s1.91.86,1.91,1.91v27.34l17.98-16.06c.3-.27.69-.42,1.09-.42h0c1.51,0,2.22,1.87,1.09,2.87l-15.81,13.99,16.37,14.96ZM178.11,14.65c.73.61.76,1.73.1,2.42l-.2.21c-.66.7-1.67.72-2.37.15-.61-.49-1.24-.86-1.9-1.13-1.1-.45-2.4-.67-3.9-.67-2.85,0-5.17.96-6.98,2.89-1.8,1.93-2.7,4.71-2.7,8.36v18.86c0,1.06-.86,1.91-1.91,1.91s-1.91-.86-1.91-1.91V14.69c0-1.06.86-1.91,1.91-1.91s1.91.86,1.91,1.91v3.14c.43-.76.93-1.46,1.5-2.09,2.25-2.48,5.2-3.71,8.85-3.71,1.7,0,3.29.3,4.76.9.99.4,1.94.98,2.83,1.73ZM205.92,38.57c0,3-1.1,5.39-3.3,7.16-2.2,1.77-5.15,2.66-8.85,2.66-1.9,0-3.7-.26-5.4-.79-1.7-.52-3.23-1.26-4.57-2.21-.87-.61-1.67-1.28-2.41-2.01-.69-.68-.67-1.8.01-2.49.71-.71,1.85-.66,2.55.06,1.11,1.15,2.35,2.04,3.71,2.68,1.88.88,3.94,1.31,6.19,1.31,2.6,0,4.65-.52,6.15-1.57,1.5-1.05,2.25-2.52,2.25-4.43,0-1.7-.48-3.04-1.42-4.01-.95-.98-2.19-1.74-3.71-2.29-1.53-.55-3.13-1.06-4.8-1.54-1.68-.47-3.28-1.06-4.8-1.76-1.53-.7-2.76-1.69-3.71-2.96-.95-1.27-1.43-2.96-1.43-5.06,0-1.85.46-3.47,1.39-4.88.92-1.4,2.26-2.49,4.01-3.26,1.75-.77,3.8-1.16,6.15-1.16,2.6,0,4.94.45,7.01,1.35,1.53.66,2.83,1.56,3.92,2.68.65.68.61,1.77-.04,2.44-.68.7-1.81.77-2.52.11-.84-.79-1.82-1.45-2.93-1.97-1.68-.77-3.56-1.16-5.66-1.16-2.5,0-4.4.54-5.7,1.61-1.3,1.08-1.95,2.41-1.95,4.01s.47,2.77,1.42,3.67c.95.9,2.19,1.6,3.71,2.1,1.52.5,3.12.99,4.8,1.46,1.67.48,3.27,1.09,4.8,1.84,1.52.75,2.76,1.78,3.71,3.08.95,1.3,1.43,3.07,1.43,5.32ZM31.5,30.21c0,8.23,6.69,14.92,14.92,14.92.9,0,1.62.73,1.62,1.62s-.73,1.62-1.62,1.62c-7.36,0-13.69-4.4-16.55-10.7-.03.06-.05.11-.08.17-.15.32-.3.65-.47.96-.07.13-.15.26-.23.39-.22.39-.45.78-.71,1.16-.01.02-.03.04-.05.06-.63.93-1.35,1.82-2.17,2.64s-1.72,1.55-2.65,2.18c-.02.01-.03.03-.05.04-.38.26-.78.49-1.18.72-.12.07-.24.15-.37.22-.32.17-.65.32-.99.48-.22.1-.43.21-.66.31-.25.1-.51.19-.76.28-.32.12-.63.24-.95.33-.17.05-.34.09-.51.13-.41.11-.82.22-1.25.3-.06.01-.13.02-.19.03-1.07.2-2.17.31-3.3.31-.05,0-.1-.01-.15-.01-4.6-.04-9.2-1.8-12.7-5.31-.63-.63-.63-1.66,0-2.3s1.66-.63,2.3,0c3.59,3.59,8.56,4.95,13.21,4.12.07-.01.15-.02.22-.03.33-.06.66-.15.99-.24.15-.04.3-.07.45-.12.26-.08.5-.17.76-.26.22-.08.44-.15.65-.24.18-.07.35-.16.52-.24.28-.13.56-.25.83-.4.1-.05.19-.12.29-.17.33-.19.66-.38.98-.59.01,0,.02-.02.04-.03,1.55-1.06,2.9-2.4,3.96-3.95.01-.02.03-.04.05-.06.21-.31.39-.63.58-.95.06-.11.13-.21.19-.32.14-.26.26-.52.38-.79.09-.19.18-.37.26-.56.08-.2.15-.4.22-.6.1-.27.2-.54.28-.81.04-.13.06-.26.1-.38.1-.35.19-.7.26-1.06,0-.04,0-.07.02-.11.34-1.82.34-3.68,0-5.5,0-.04-.01-.08-.02-.12-.07-.35-.16-.7-.26-1.05-.04-.13-.06-.26-.1-.39-.08-.27-.18-.53-.28-.8-.07-.2-.14-.41-.22-.61-.08-.19-.17-.37-.26-.55-.13-.27-.25-.54-.39-.8-.06-.1-.12-.2-.18-.3-.19-.33-.38-.65-.59-.97,0-.01-.02-.02-.03-.03-2.69-3.95-7.22-6.55-12.35-6.55-.9,0-1.62-.73-1.62-1.62s.73-1.62,1.62-1.62c4.95,0,9.44,2,12.73,5.22.04.03.09.06.13.1.82.82,1.53,1.7,2.16,2.63.02.03.04.05.06.08.25.38.48.77.7,1.16.08.13.16.26.23.39.17.32.31.64.46.96.03.06.05.11.08.17,2.86-6.3,9.19-10.7,16.55-10.7.9,0,1.62.73,1.62,1.62s-.73,1.62-1.62,1.62c-8.23,0-14.92,6.69-14.92,14.92ZM75.72,14.16c-2.45-1.43-5.25-2.14-8.4-2.14-3.35,0-6.39.8-9.11,2.4-2.73,1.6-4.86,3.76-6.41,6.49-1.55,2.73-2.33,5.81-2.33,9.26s.8,6.55,2.4,9.3c1.6,2.75,3.77,4.93,6.52,6.52,2.75,1.6,5.87,2.4,9.37,2.4,2.8,0,5.4-.54,7.8-1.61,1.82-.82,3.42-1.87,4.81-3.16.73-.67.72-1.83,0-2.52-.69-.67-1.77-.63-2.47.04-1.06,1.02-2.28,1.83-3.67,2.42-1.93.82-4.01,1.24-6.26,1.24-2.95,0-5.53-.61-7.73-1.84-2.2-1.22-3.91-2.95-5.14-5.17-1.02-1.85-1.61-3.97-1.78-6.35l.63-.09c8.67-1.17,17.44-1.21,26.12-.14l3.11.38c.1-.65.17-1.21.23-1.69.05-.47.07-.86.07-1.16,0-3.3-.69-6.2-2.06-8.7-1.38-2.5-3.29-4.46-5.74-5.89ZM53.39,28.14c.2-2.11.75-4.01,1.67-5.69,1.17-2.15,2.81-3.84,4.91-5.06,2.1-1.22,4.52-1.84,7.27-1.84s4.92.58,6.83,1.73c1.9,1.15,3.35,2.76,4.35,4.84.85,1.76,1.28,3.78,1.33,6.03-8.75-1.14-17.61-1.14-26.36,0Z"></path>
</svg>