<?xml version="1.0" encoding="UTF-8"?>
<svg id="Layer_1" data-name="Layer 1" xmlns="http://www.w3.org/2000/svg" viewBox="0 0 205.92 48.4">
  <defs><style>.cls-1{fill:#ffffff}</style></defs>
  <path class="cls-1" d="M15.54,39.13l-3.06-6.89-4.41,6.06-2.94-2.62,5.59-4.99-7.06-2.25,1.6-3.61,6.43,3.66-.03-7.45,4,.39-1.6,7.31,7.2-2.37.82,3.84-7.54.83,4.48,6.09-3.49,2Z"></path>
  <path class="cls-1" d="M113.47,14.16c-2.45-1.43-5.25-2.14-8.4-2.14-3.35,0-6.39.8-9.11,2.4-2.73,1.6-4.86,3.76-6.41,6.49-1.55,2.73-2.33,5.81-2.33,9.26s.8,6.55,2.4,9.3c1.6,2.75,3.77,4.93,6.52,6.52,2.75,1.6,5.88,2.4,9.38,2.4,2.8,0,5.4-.54,7.8-1.61,1.82-.82,3.42-1.87,4.81-3.16.73-.67.72-1.83,0-2.52-.69-.67-1.77-.63-2.47.04-1.06,1.02-2.28,1.83-3.67,2.42-1.93.82-4.01,1.24-6.26,1.24-2.95,0-5.53-.61-7.73-1.84-2.2-1.22-3.91-2.95-5.14-5.17-1.02-1.85-1.61-3.97-1.78-6.35l.63-.09c8.67-1.17,17.44-1.21,26.12-.14l3.11.38c.1-.65.17-1.21.23-1.69.05-.47.07-.86.07-1.16,0-3.3-.69-6.2-2.06-8.7-1.38-2.5-3.29-4.46-5.74-5.89ZM91.14,28.14c.2-2.11.75-4.01,1.67-5.69,1.17-2.15,2.81-3.84,4.91-5.06,2.1-1.22,4.52-1.84,7.27-1.84s4.92.58,6.83,1.73c1.9,1.15,3.35,2.76,4.35,4.84.85,1.76,1.28,3.78,1.33,6.03-8.75-1.14-17.61-1.14-26.36,0ZM150.27,44.59c1.19,1.08.42,3.06-1.19,3.06-.41,0-.81-.16-1.11-.43l-18.43-17.01v15.53c0,1.06-.86,1.91-1.91,1.91s-1.91-.86-1.91-1.91V1.91c0-1.06.86-1.91,1.91-1.91s1.91.86,1.91,1.91v27.34l17.98-16.06c.3-.27.69-.42,1.09-.42h0c1.51,0,2.22,1.87,1.09,2.87l-15.81,13.99,16.37,14.96ZM178.11,14.65c.73.61.76,1.73.1,2.42l-.2.21c-.66.7-1.67.72-2.37.15-.61-.49-1.24-.86-1.9-1.13-1.1-.45-2.4-.67-3.9-.67-2.85,0-5.17.96-6.98,2.89-1.8,1.93-2.7,4.71-2.7,8.36v18.86c0,1.06-.86,1.91-1.91,1.91s-1.91-.86-1.91-1.91V14.69c0-1.06.86-1.91,1.91-1.91s1.91.86,1.91,1.91v3.14c.43-.76.93-1.46,1.5-2.09,2.25-2.48,5.2-3.71,8.85-3.71,1.7,0,3.29.3,4.76.9.99.4,1.94.98,2.83,1.73ZM205.92,38.57c0,3-1.1,5.39-3.3,7.16-2.2,1.77-5.15,2.66-8.85,2.66-1.9,0-3.7-.26-5.4-.79-1.7-.52-3.23-1.26-4.57-2.21-.87-.61-1.67-1.28-2.41-2.01-.69-.68-.67-1.8.01-2.49.71-.71,1.85-.66,2.55.06,1.11,1.15,2.35,2.04,3.71,2.68,1.88.88,3.94,1.31,6.19,1.31,2.6,0,4.65-.52,6.15-1.57,1.5-1.05,2.25-2.52,2.25-4.43,0-1.7-.48-3.04-1.42-4.01-.95-.98-2.19-1.74-3.71-2.29-1.53-.55-3.13-1.06-4.8-1.54-1.68-.47-3.28-1.06-4.8-1.76-1.53-.7-2.76-1.69-3.71-2.96-.95-1.27-1.43-2.96-1.43-5.06,0-1.85.46-3.47,1.39-4.88.92-1.4,2.26-2.49,4.01-3.26,1.75-.77,3.8-1.16,6.15-1.16,2.6,0,4.94.45,7.01,1.35,1.53.66,2.83,1.56,3.92,2.68.65.68.61,1.77-.04,2.44-.68.7-1.81.77-2.52.11-.84-.79-1.82-1.45-2.93-1.97-1.68-.77-3.56-1.16-5.66-1.16-2.5,0-4.4.54-5.7,1.61-1.3,1.08-1.95,2.41-1.95,4.01s.47,2.77,1.42,3.67c.95.9,2.19,1.6,3.71,2.1,1.52.5,3.12.99,4.8,1.46,1.67.48,3.27,1.09,4.8,1.84,1.52.75,2.76,1.78,3.71,3.08.95,1.3,1.43,3.07,1.43,5.32ZM31.5,30.21c0,8.23,6.69,14.92,14.92,14.92.9,0,1.62.73,1.62,1.62s-.73,1.62-1.62,1.62c-7.36,0-13.69-4.4-16.55-10.7-.03.06-.05.11-.08.17-.15.32-.3.65-.47.96-.07.13-.15.26-.23.39-.22.39-.45.78-.71,1.16-.01.02-.03.04-.05.06-.63.93-1.35,1.82-2.17,2.64s-1.72,1.55-2.65,2.18c-.02.01-.03.03-.05.04-.38.26-.78.49-1.18.72-.12.07-.24.15-.37.22-.32.17-.65.32-.99.48-.22.1-.43.21-.66.31-.25.1-.51.19-.76.28-.32.12-.63.24-.95.33-.17.05-.34.09-.51.13-.41.11-.82.22-1.25.3-.06.01-.13.02-.19.03-1.07.2-2.17.31-3.3.31-.05,0-.1-.01-.15-.01-4.6-.04-9.2-1.8-12.7-5.31-.63-.63-.63-1.66,0-2.3s1.66-.63,2.3,0c3.59,3.59,8.56,4.95,13.21,4.12.07-.01.15-.02.22-.03.33-.06.66-.15.99-.24.15-.04.3-.07.45-.12.26-.08.5-.17.76-.26.22-.08.44-.15.65-.24.18-.07.35-.16.52-.24.28-.13.56-.25.83-.4.1-.05.19-.12.29-.17.33-.19.66-.38.98-.59.01,0,.02-.02.04-.03,1.55-1.06,2.9-2.4,3.96-3.95.01-.02.03-.04.05-.06.21-.31.39-.63.58-.95.06-.11.13-.21.19-.32.14-.26.26-.52.38-.79.09-.19.18-.37.26-.56.08-.2.15-.4.22-.6.1-.27.2-.54.28-.81.04-.13.06-.26.1-.38.1-.35.19-.7.26-1.06,0-.04,0-.07.02-.11.34-1.82.34-3.68,0-5.5,0-.04-.01-.08-.02-.12-.07-.35-.16-.7-.26-1.05-.04-.13-.06-.26-.1-.39-.08-.27-.18-.53-.28-.8-.07-.2-.14-.41-.22-.61-.08-.19-.17-.37-.26-.55-.13-.27-.25-.54-.39-.8-.06-.1-.12-.2-.18-.3-.19-.33-.38-.65-.59-.97,0-.01-.02-.02-.03-.03-2.69-3.95-7.22-6.55-12.35-6.55-.9,0-1.62-.73-1.62-1.62s.73-1.62,1.62-1.62c4.95,0,9.44,2,12.73,5.22.04.03.09.06.13.1.82.82,1.53,1.7,2.16,2.63.02.03.04.05.06.08.25.38.48.77.7,1.16.08.13.16.26.23.39.17.32.31.64.46.96.03.06.05.11.08.17,2.86-6.3,9.19-10.7,16.55-10.7.9,0,1.62.73,1.62,1.62s-.73,1.62-1.62,1.62c-8.23,0-14.92,6.69-14.92,14.92ZM75.72,14.16c-2.45-1.43-5.25-2.14-8.4-2.14-3.35,0-6.39.8-9.11,2.4-2.73,1.6-4.86,3.76-6.41,6.49-1.55,2.73-2.33,5.81-2.33,9.26s.8,6.55,2.4,9.3c1.6,2.75,3.77,4.93,6.52,6.52,2.75,1.6,5.87,2.4,9.37,2.4,2.8,0,5.4-.54,7.8-1.61,1.82-.82,3.42-1.87,4.81-3.16.73-.67.72-1.83,0-2.52-.69-.67-1.77-.63-2.47.04-1.06,1.02-2.28,1.83-3.67,2.42-1.93.82-4.01,1.24-6.26,1.24-2.95,0-5.53-.61-7.73-1.84-2.2-1.22-3.91-2.95-5.14-5.17-1.02-1.85-1.61-3.97-1.78-6.35l.63-.09c8.67-1.17,17.44-1.21,26.12-.14l3.11.38c.1-.65.17-1.21.23-1.69.05-.47.07-.86.07-1.16,0-3.3-.69-6.2-2.06-8.7-1.38-2.5-3.29-4.46-5.74-5.89ZM53.39,28.14c.2-2.11.75-4.01,1.67-5.69,1.17-2.15,2.81-3.84,4.91-5.06,2.1-1.22,4.52-1.84,7.27-1.84s4.92.58,6.83,1.73c1.9,1.15,3.35,2.76,4.35,4.84.85,1.76,1.28,3.78,1.33,6.03-8.75-1.14-17.61-1.14-26.36,0Z"></path>
</svg>