<?xml version="1.0" encoding="UTF-8"?>
<svg id="Layer_1" data-name="Layer 1" xmlns="http://www.w3.org/2000/svg" viewBox="0 0 144 144">
  <defs><style>.cls-1{fill:#037468}.cls-2{fill:#0b2427}.cls-3{fill:#f8fbf3}</style></defs>
  <rect class="cls-3" x="-9" y="-9" width="162" height="162"></rect>
  <path class="cls-2" d="M116.64,72c0,20.2,16.43,36.63,36.63,36.63,2.2,0,3.99,1.79,3.99,3.99s-1.79,3.99-3.99,3.99c-18.06,0-33.61-10.8-40.62-26.27-.06.14-.13.27-.2.41-.37.79-.73,1.59-1.14,2.37-.17.32-.38.63-.56.95-.55.96-1.11,1.92-1.73,2.85-.04.05-.08.1-.11.15-1.55,2.28-3.31,4.46-5.33,6.48s-4.22,3.8-6.51,5.35c-.04.03-.08.06-.12.09-.94.63-1.91,1.2-2.89,1.76-.3.17-.6.37-.9.53-.79.43-1.61.79-2.42,1.17-.54.25-1.07.52-1.62.75-.61.25-1.24.46-1.87.68-.78.28-1.55.58-2.34.82-.41.12-.83.21-1.24.32-1.01.27-2.02.54-3.06.75-.16.03-.32.04-.47.07-2.63.48-5.33.77-8.09.77-.12,0-.24-.03-.36-.04-11.3-.09-22.58-4.42-31.18-13.03-1.56-1.56-1.56-4.08,0-5.64s4.08-1.56,5.64,0c8.8,8.8,21,12.16,32.41,10.12.18-.03.36-.05.54-.08.81-.16,1.62-.38,2.42-.59.37-.1.75-.18,1.11-.29.63-.19,1.24-.43,1.86-.65.53-.19,1.07-.37,1.6-.59.43-.18.86-.4,1.28-.6.68-.32,1.37-.62,2.02-.98.24-.13.48-.29.72-.42.81-.46,1.62-.93,2.39-1.46.03-.02.06-.05.09-.07,3.81-2.59,7.11-5.89,9.71-9.7.04-.05.08-.1.11-.16.51-.75.96-1.54,1.42-2.33.15-.27.32-.52.47-.79.34-.63.63-1.28.93-1.93.21-.46.45-.91.64-1.38.2-.48.36-.98.54-1.47.24-.66.49-1.32.69-1.99.09-.31.16-.63.24-.94.23-.86.46-1.72.63-2.6.02-.09.02-.18.04-.26.83-4.46.83-9.04,0-13.5-.02-.09-.03-.19-.04-.29-.17-.87-.4-1.72-.63-2.57-.09-.32-.15-.65-.25-.96-.2-.66-.45-1.31-.69-1.96-.18-.5-.34-1.01-.55-1.49-.19-.46-.42-.9-.63-1.35-.31-.66-.6-1.33-.95-1.96-.14-.25-.3-.5-.44-.75-.46-.81-.93-1.61-1.44-2.37-.02-.03-.04-.06-.06-.08-6.6-9.7-17.72-16.09-30.31-16.09-2.2,0-3.99-1.79-3.99-3.99s1.79-3.99,3.99-3.99c12.16,0,23.18,4.9,31.23,12.81.1.08.21.16.31.25,2.01,2.01,3.76,4.18,5.31,6.45.04.06.09.12.14.19.62.92,1.18,1.88,1.73,2.84.18.32.39.63.57.96.42.77.77,1.57,1.14,2.36.06.14.13.27.2.41,7.01-15.47,22.56-26.27,40.62-26.27,2.2,0,3.99,1.79,3.99,3.99s-1.79,3.99-3.99,3.99c-20.2,0-36.63,16.43-36.63,36.63Z"></path>
  <polygon class="cls-1" points="86.02 88.97 75.03 74.03 93.55 72 91.54 62.57 73.85 68.38 77.77 50.44 67.95 49.49 68.01 67.77 52.23 58.78 48.29 67.64 65.61 73.17 51.91 85.42 59.12 91.86 69.95 76.98 77.45 93.89 86.02 88.97"></polygon>
</svg>